<svg width="240" height="240" viewBox="0 0 240 240" fill="none" xmlns="http://www.w3.org/2000/svg">
<path fill-rule="evenodd" clip-rule="evenodd" d="M176.058 5.54483V11.5713L189.437 25.7782C191.144 25.6116 192.855 25.5967 194.42 26.443C194.242 26.6355 194.086 26.9009 193.926 27.1726C193.512 27.879 193.072 28.6282 192.157 28.2515C192.003 28.192 191.852 28.1259 191.702 28.0599L191.697 28.0582C191.666 28.0443 191.634 28.0305 191.603 28.0167L191.549 27.9933L191.506 27.9749L192.01 28.5098C192.415 28.3948 192.859 28.4141 193.268 28.6095C194.162 29.0363 194.541 30.1066 194.115 31.0005C193.689 31.8948 192.618 32.2741 191.724 31.8477C190.9 31.4546 190.522 30.5142 190.802 29.6684L174.385 12.2351V6.60032C173.416 7.32263 172.537 8.15896 171.758 9.08007V13.7001L184.799 26.3587C185.242 26.1902 185.748 26.1926 186.208 26.4123C187.103 26.8386 187.481 27.909 187.055 28.8033C186.629 29.6976 185.559 30.0769 184.665 29.65C183.888 29.2797 183.501 28.4221 183.694 27.6175L170.085 14.408V11.4721C169.683 12.182 169.335 12.9232 169.053 13.6916C168.413 13.6534 167.773 13.6351 167.135 13.6252V15.4327L185.865 34.5085C186.305 34.3429 186.809 34.3474 187.267 34.5655C188.161 34.9924 188.539 36.0627 188.113 36.957C187.687 37.8509 186.617 38.2301 185.723 37.8038C184.945 37.4325 184.557 36.5713 184.753 35.7647L165.462 16.1169V13.6286C161.588 13.7095 157.739 14.2533 153.932 15.0049V28.9163L169.638 45.1801V51.8689C170.485 51.6091 171.342 51.3846 172.2 51.1992C173.049 51.0182 173.902 50.866 174.756 50.7356V45.2377L159.59 30.1647V19.2302C159.574 19.2241 159.558 19.2191 159.542 19.2141C159.53 19.2103 159.518 19.2065 159.506 19.2023C159.494 19.198 159.482 19.1933 159.47 19.1876C158.576 18.7612 158.197 17.6909 158.623 16.7965C159.05 15.9022 160.12 15.5229 161.013 15.9493C161.907 16.3757 162.287 17.446 161.86 18.3403C161.722 18.6318 161.51 18.8619 161.262 19.0334V29.4681L176.429 44.5416V50.5105C179.152 50.1903 181.896 50.0817 184.644 50.0659V49.1095C183.926 48.6197 183.647 47.6708 184.033 46.8618C184.459 45.9674 185.529 45.5882 186.423 46.0145C187.317 46.4409 187.696 47.5112 187.269 48.4056C187.068 48.8284 186.72 49.1314 186.317 49.293V50.0663C187.799 50.0749 189.281 50.1024 190.76 50.1299C191.848 50.1501 192.934 50.1702 194.017 50.1828C194.522 50.1719 195.031 50.1556 195.541 50.1362V48.0957L189.761 43.4752C189.296 43.6855 188.749 43.7048 188.252 43.4678C187.358 43.042 186.979 41.9716 187.405 41.0773C187.831 40.1829 188.902 39.8037 189.795 40.23C190.536 40.5835 190.915 41.3787 190.783 42.1501L197.214 47.2906V50.0525C198.788 49.9533 200.368 49.7877 201.916 49.5012L200.185 48.4145V42.916L193.856 37.489C193.594 37.4905 193.328 37.4409 193.076 37.3204C192.182 36.8946 191.803 35.8237 192.229 34.9294C192.655 34.035 193.725 33.6558 194.619 34.0821C195.513 34.5085 195.892 35.5793 195.466 36.4737C195.444 36.5193 195.414 36.5569 195.389 36.6001L201.857 42.1461V47.4889L204.218 48.9702C206.062 48.4566 207.834 47.7259 209.468 46.6719C210.828 45.7776 212.024 44.4866 212.841 43.0097L206.826 37.6833C206.321 38.012 205.664 38.0824 205.08 37.8038C204.186 37.3774 203.807 36.3066 204.233 35.4127C204.659 34.5189 205.729 34.1397 206.623 34.5655C207.262 34.8704 207.63 35.504 207.638 36.1668L213.551 41.404C213.761 40.7649 213.895 40.1076 213.94 39.4452L203.551 30.3045C203.075 30.5409 202.501 30.5717 201.983 30.3248C201.209 29.9554 200.823 29.1032 201.01 28.3006C199.925 27.5322 198.84 26.7628 197.764 25.9805L197.757 25.9602C197.294 24.6086 196.808 23.1922 196.009 21.9976V22.6951C196.759 23.1755 197.057 24.1442 196.664 24.9691C196.238 25.8634 195.168 26.2427 194.274 25.8159C193.38 25.39 193.001 24.3197 193.428 23.4248C193.621 23.0178 193.952 22.7238 194.336 22.5582V20.252C192.615 18.917 190.761 17.7714 188.908 16.6262C188.686 16.4893 188.464 16.3523 188.243 16.215C188.32 16.5834 188.288 16.977 188.113 17.3429C187.687 18.2372 186.617 18.6165 185.723 18.1906C184.829 17.7638 184.45 16.6934 184.877 15.7991C185.048 15.4402 185.325 15.169 185.651 14.995V14.5453C185.547 14.4752 185.443 14.4061 185.339 14.3363C185.263 14.2847 185.186 14.2328 185.111 14.1799C184.408 13.1367 183.864 11.9785 183.32 10.8193C182.418 8.89841 181.515 6.9748 179.886 5.56713C179.36 5.1621 178.768 5 178.164 5C177.451 5 176.72 5.22606 176.058 5.54483ZM169.025 29.0462C168.131 28.6199 167.752 27.5495 168.178 26.6547C168.604 25.7608 169.674 25.3821 170.568 25.8079C171.462 26.2348 171.841 27.3051 171.415 28.199C171.401 28.2279 171.384 28.2539 171.367 28.2798L171.362 28.2875C171.358 28.2926 171.355 28.2978 171.352 28.3029C171.347 28.3103 171.342 28.3178 171.338 28.3254L177.807 33.8719V39.2147L180.81 41.1001C181.318 40.7625 181.982 40.6866 182.572 40.9682C183.466 41.3946 183.845 42.4649 183.419 43.3592C182.993 44.2531 181.923 44.6324 181.029 44.206C180.38 43.8971 180.008 43.2482 180.012 42.5744L176.133 40.1398V34.6413L169.805 29.2148H169.794C169.536 29.2148 169.274 29.1647 169.025 29.0462Z" fill="white"/>
<path d="M144.6 17.2115C145.954 16.8333 147.312 16.4733 148.68 16.1536C149.868 15.8735 151.062 15.6028 152.259 15.3485V29.5931L167.966 45.8564V52.4415C166.728 52.9195 165.542 53.5134 164.434 54.2273V46.261L149.267 31.1874V20.7527C149.515 20.5812 149.726 20.3512 149.864 20.0601C150.291 19.1658 149.911 18.095 149.018 17.6686C148.124 17.2428 147.054 17.6215 146.628 18.5159C146.202 19.4097 146.581 20.4805 147.475 20.9069C147.513 20.9257 147.555 20.9347 147.594 20.9495V31.884L162.761 46.957V55.4602C162.439 55.7344 162.122 56.0165 161.822 56.3213C161.54 56.607 161.268 56.9014 160.996 57.196C160.897 57.3028 160.798 57.4097 160.699 57.5161V48.2008L144.6 32.6801V17.2115Z" fill="white"/>
<path d="M134.541 20.1757V65.1607L147.586 76.7342C147.923 76.0932 148.263 75.4552 148.608 74.8211C148.689 74.6758 148.772 74.5312 148.855 74.3867L148.856 74.3839C148.913 74.2863 148.969 74.1889 149.024 74.0913L139.263 65.1761V18.7792C137.691 19.2531 136.119 19.7256 134.541 20.1757Z" fill="white"/>
<path d="M118.553 22.9113C119.734 22.9093 120.918 22.8558 122.106 22.7274C122.209 22.7176 122.312 22.7054 122.415 22.6933C122.489 22.6845 122.563 22.6758 122.637 22.6679V78.6707H130.325L142.147 89.1441C141.749 90.3532 141.393 91.5762 141.084 92.8127L127.277 80.6408L127.039 80.4326H118.638C118.885 74.3368 119.105 68.2394 119.322 62.1426C119.074 63.1153 118.816 64.0865 118.553 65.0572V22.9113Z" fill="white"/>
<path d="M144.118 113.648L148.404 117.194C148.597 117.204 148.789 117.213 148.982 117.222L149.249 117.234L149.252 117.235C149.788 117.26 150.323 117.285 150.859 117.312C151.045 117.321 151.231 117.331 151.416 117.341L143.941 111.063C143.997 111.925 144.056 112.787 144.118 113.648Z" fill="white"/>
<path d="M25.0658 129.978C149.534 119.405 200.957 127.123 200.957 127.123C178.037 122.248 153.135 120.539 129.461 120.539C73.8477 120.541 25.0658 129.978 25.0658 129.978Z" fill="white"/>
<path d="M106.975 88.098L110.345 91.894V104.554L113.526 108.04C112.285 102.716 112.499 97.2521 113.321 91.8731L109.163 87.1892C108.444 87.5164 107.713 87.8144 106.975 88.098Z" fill="white"/>
<path d="M113.675 89.7518L110.73 86.4342C112.158 85.7114 113.541 84.9128 114.862 84.0546C114.428 85.9315 114.022 87.8348 113.675 89.7518Z" fill="white"/>
<path d="M144.022 95.4025L161.377 110.703V117.986C162.739 118.09 164.1 118.203 165.462 118.318V110.05C165.001 109.949 164.541 109.852 164.085 109.755C163.964 109.274 163.864 108.791 163.775 108.307L145.156 91.8102C144.747 92.998 144.376 94.1983 144.022 95.4025Z" fill="white"/>
<path d="M82.6522 34.3737C82.8291 33.9454 82.8237 33.4908 82.6795 33.0867L94.5338 20.2382C98.4506 20.2995 102.339 20.9371 106.227 21.5747C107.712 21.8181 109.196 22.0614 110.682 22.2728V76.1051C110.327 76.2935 110.028 76.5944 109.862 76.995C109.483 77.9101 109.917 78.9597 110.832 79.3394C111.746 79.7187 112.795 79.2844 113.174 78.3692C113.531 77.5081 113.162 76.5344 112.355 76.1061V22.4953C113.861 22.6798 115.369 22.8196 116.88 22.8796V70.7345C115.978 73.5266 114.955 76.2796 113.747 78.9592C113.666 79.1243 113.586 79.2932 113.506 79.4633L113.505 79.4654C112.972 80.5937 112.412 81.7807 111.214 82.3249C110.266 82.838 109.286 83.2871 108.283 83.6783L106.072 81.1881V55.2654C106.409 55.0751 106.69 54.7821 106.85 54.3974C107.229 53.4822 106.796 52.4327 105.881 52.0534C104.966 51.6737 103.917 52.1075 103.538 53.0226C103.175 53.8986 103.562 54.8921 104.399 55.3086V81.8237L106.575 84.2757C105.779 84.5265 104.972 84.7422 104.156 84.9216L102.166 82.6798V24.2602C102.527 24.0723 102.829 23.7689 102.997 23.3644C103.376 22.4492 102.943 21.3992 102.029 21.02C101.113 20.6402 100.064 21.0745 99.6851 21.9897C99.3293 22.8468 99.694 23.8151 100.493 24.2469V83.3149L102.234 85.2766C100.767 85.4972 99.2847 85.6078 97.804 85.6107V42.2919C98.1444 42.1021 98.4298 41.8071 98.5904 41.4189C98.9705 40.5042 98.5364 39.4547 97.6221 39.075C96.7073 38.6957 95.6582 39.1295 95.2786 40.0447C94.9168 40.9177 95.3009 41.9062 96.1309 42.3256V85.5691C95.3266 85.5265 94.5253 85.4541 93.7309 85.3475C93.5961 85.3319 93.4612 85.3103 93.327 85.2889L93.2815 85.2816V33.9741C93.5902 33.7832 93.8464 33.5007 93.9961 33.1397C94.3752 32.2246 93.9415 31.1751 93.0272 30.7958C92.1124 30.4161 91.0634 30.8498 90.6837 31.765C90.3111 32.6643 90.7264 33.6895 91.608 34.0851V84.877C90.4677 84.5027 89.3928 83.9415 88.4775 83.1954V46.9392L82.3549 40.5746C82.4931 39.7675 82.065 38.9441 81.2771 38.6169C80.3628 38.2376 79.3136 38.6714 78.9345 39.5866C78.5549 40.5013 78.9886 41.5508 79.9034 41.9305C80.3761 42.1268 80.8836 42.1021 81.3172 41.9092L86.805 47.6139V81.3348C86.4413 80.7702 86.1479 80.1505 85.9457 79.4738C85.8867 84.4636 84.29 89.3805 81.6373 93.591C80.7062 95.2339 79.5168 96.7569 78.2888 98.2625V51.397L74.8972 46.8321C74.9909 46.7106 75.0756 46.5797 75.1371 46.431C75.5167 45.5163 75.0826 44.4668 74.1677 44.0871C73.253 43.7078 72.2044 44.1416 71.8248 45.0568C71.4457 45.972 71.8788 47.0215 72.7936 47.4007C72.968 47.4731 73.1469 47.5068 73.3253 47.5227L76.6158 51.9513V100.307C75.4973 101.692 74.4299 103.102 73.5795 104.613V52.0028L69.3232 47.6907C69.4867 46.8688 69.0556 46.0185 68.2518 45.6849C67.3375 45.3056 66.2879 45.7394 65.9083 46.6546C65.5292 47.5698 65.9628 48.6193 66.8776 48.9986C67.3385 49.1899 67.833 49.1736 68.2587 48.9946L71.9065 52.69V109.186C71.8431 109.57 71.7945 109.961 71.7678 110.362C71.7841 110.363 71.8002 110.365 71.8163 110.367C71.8259 110.368 71.8354 110.369 71.8449 110.37C71.8655 110.372 71.886 110.375 71.9065 110.376V120.021C71.0408 120.133 70.175 120.244 69.3098 120.359V55.7443L65.5237 52.3117C65.6377 51.52 65.2145 50.7218 64.4419 50.4005C63.5276 50.0213 62.478 50.4551 62.0989 51.3703C61.7193 52.2854 62.1534 53.3349 63.0682 53.7147C63.5588 53.918 64.0851 53.8813 64.5287 53.6681L67.6373 56.4865V120.583C66.9467 120.676 66.2561 120.769 65.5656 120.862L62.6871 121.249V113.044C63.2486 112.743 63.6351 112.158 63.6351 111.477C63.6351 110.491 62.8363 109.692 61.8511 109.692C60.8655 109.692 60.0671 110.491 60.0671 111.477C60.0671 112.158 60.4527 112.743 61.0141 113.044V121.472C59.1741 121.717 57.3341 121.96 55.4926 122.189C55.0753 120.965 54.8553 119.709 54.725 118.439L54.78 118.387C54.9133 118.418 55.0501 118.439 55.1923 118.439C56.1859 118.439 56.9917 117.632 56.9917 116.639C56.9917 115.644 56.1859 114.838 55.1923 114.838C54.953 114.838 54.7255 114.887 54.5169 114.972C54.4827 114.088 54.4475 113.205 54.3776 112.329C54.2844 110.454 54.2042 108.573 54.1348 106.691C54.6873 106.358 55.061 105.757 55.061 105.064C55.061 104.328 54.6398 103.696 54.0292 103.379C53.996 102.144 53.9693 100.91 53.9524 99.6744L65.9603 88.5377V60.1595C66.2809 59.9692 66.5481 59.6821 66.7017 59.3108C67.0818 58.3961 66.6476 57.3466 65.7328 56.9669C64.8185 56.5871 63.7694 57.0214 63.3899 57.9366C63.0216 58.8255 63.4245 59.8368 64.2873 60.2418V87.8074L53.9346 97.4088C53.9004 90.0289 54.2136 82.6476 55.165 75.3525C55.2295 75.2564 55.2865 75.1527 55.3321 75.0417C55.502 74.6327 55.5015 74.1994 55.3762 73.8087C55.5263 72.7582 55.6918 71.7097 55.8707 70.6636L56.3668 71.3295C56.3596 71.3418 56.3523 71.3542 56.345 71.3665L56.3448 71.367C56.3126 71.4214 56.2803 71.4762 56.2558 71.5362C55.8762 72.4509 56.3098 73.5004 57.2241 73.8796C58.1389 74.2599 59.188 73.8256 59.5676 72.9104C59.9467 71.9958 59.5131 70.9467 58.5983 70.567C58.3336 70.4569 58.0586 70.4222 57.7905 70.4406L56.2821 68.4139C56.4555 67.5126 56.6378 66.6133 56.8346 65.7155L59.6048 69.3464C59.2722 70.2457 59.7014 71.2536 60.5944 71.6244C61.5087 72.0042 62.5578 71.5699 62.9374 70.6547C63.3165 69.7395 62.8829 68.6905 61.9686 68.3103C61.6019 68.1586 61.2153 68.1422 60.858 68.23L57.3182 63.5912C57.5978 62.4336 57.8946 61.279 58.2172 60.1293C57.9315 60.4608 57.6608 60.8738 57.3815 61.2998C57.1066 61.7191 56.8234 62.1513 56.5095 62.5307L53.7165 58.8706C53.7402 58.6956 53.7647 58.5213 53.789 58.3482C53.8213 58.1191 53.8532 57.8921 53.8825 57.6679C55.5119 49.0412 59.3778 40.8111 65.098 34.1382C68.8504 29.7334 73.5557 26.0787 78.8052 23.6257L62.3323 41.3114C62.3218 41.3065 62.3122 41.3003 62.3025 41.2945C62.2953 41.2903 62.2881 41.2862 62.2803 41.2831C61.3655 40.9033 60.3164 41.3376 59.9368 42.2528C59.5572 43.1675 59.9913 44.2165 60.9061 44.5962C61.8209 44.976 62.87 44.5422 63.2486 43.6275C63.3804 43.3107 63.4087 42.979 63.3591 42.6638L82.4763 22.1394C84.8515 21.3269 87.3105 20.7557 89.8254 20.4766C90.6263 20.3765 91.4256 20.313 92.224 20.2743L81.4445 31.9574C80.5932 31.7358 79.6868 32.1621 79.3404 32.999C78.9608 33.9136 79.3944 34.9631 80.3092 35.3424C81.2235 35.7221 82.2726 35.2884 82.6522 34.3737Z" fill="white"/>
<path d="M118.57 82.1057C118.397 86.2746 118.201 90.4429 117.989 94.6102L120.378 97.3017V106.43L123.63 109.083C124.079 108.859 124.617 108.815 125.118 109.023C126.032 109.403 126.466 110.452 126.087 111.367C125.707 112.282 124.658 112.716 123.743 112.337C122.979 112.019 122.559 111.234 122.66 110.452L118.705 107.225V97.9373L117.864 96.9894C117.85 97.2559 117.836 97.5225 117.822 97.7891L117.785 98.5241C117.74 99.3947 117.696 100.265 117.646 101.136C117.604 101.738 117.566 102.341 117.527 102.944C117.346 105.787 117.164 108.637 116.623 111.435L121.43 116.705C123.555 116.68 125.68 116.675 127.805 116.68V108.27L123.723 104.378C123.331 104.507 122.895 104.508 122.483 104.337C121.569 103.957 121.135 102.908 121.514 101.993C121.894 101.078 122.943 100.644 123.857 101.024C124.708 101.376 125.134 102.309 124.885 103.174L129.478 107.553V116.687C132.435 116.705 135.392 116.753 138.347 116.828L131.572 110.857V99.2669L126.225 94.2682C125.828 94.403 125.385 94.406 124.967 94.233C124.052 93.8532 123.618 92.8037 123.998 91.8885C124.377 90.9734 125.426 90.5396 126.34 90.9188C127.186 91.2698 127.611 92.1909 127.373 93.0511L133.245 98.5406V110.1L140.955 116.896C142.512 116.944 144.069 117.003 145.625 117.068L144.292 115.964C144.293 115.978 144.294 115.993 144.295 116.007C144.296 116.026 144.298 116.045 144.3 116.065C142.287 114.923 140.183 113.959 137.999 113.207C138.011 113.056 138.025 112.906 138.038 112.756C138.054 112.585 138.07 112.415 138.084 112.245C137.423 111.769 137.147 110.888 137.472 110.103C137.653 109.667 137.989 109.344 138.388 109.163C138.878 104.687 139.571 100.237 140.433 95.8219C140.503 95.4362 140.58 95.0529 140.659 94.6692L126.408 82.1057H118.57Z" fill="white"/>
<path d="M128.75 21.9465C128.916 21.8444 129.064 21.714 129.191 21.5613C130.423 21.2827 131.648 20.9714 132.868 20.6407V65.9143L146.792 78.2671C146.252 79.3275 145.728 80.3973 145.225 81.4766L128.75 67.294V21.9465Z" fill="white"/>
<path d="M145.769 90.1177L163.445 105.778C163.281 103.691 163.361 101.584 163.587 99.4905L147.548 85.6841C146.913 87.1441 146.319 88.623 145.769 90.1177Z" fill="white"/>
<path d="M143.792 108.746C143.663 106.653 143.534 104.559 143.376 102.468C143.36 102.207 143.342 101.945 143.324 101.682L143.324 101.678C143.222 100.173 143.117 98.6477 143.513 97.1847L159.705 111.458V117.869C157.876 117.737 156.046 117.617 154.215 117.506L143.793 108.753L143.792 108.746Z" fill="white"/>
<path d="M140.936 64.4374V18.276C141.599 18.0776 142.263 17.8818 142.927 17.6885V33.3921L159.026 48.9123V59.3862C156.482 62.3538 154.215 65.5494 152.134 68.8636L149.13 66.0913V50.9697C149.426 50.7947 149.675 50.5334 149.834 50.1993C150.26 49.3054 149.881 48.2351 148.987 47.8082C148.094 47.3819 147.024 47.7616 146.598 48.656C146.171 49.5499 146.55 50.6202 147.445 51.0465L147.447 51.0475C147.448 51.048 147.45 51.0485 147.451 51.049C147.453 51.0497 147.455 51.0505 147.457 51.0515V66.8245L151.235 70.3107C150.773 71.0702 150.319 71.8331 149.874 72.6016L140.936 64.4374Z" fill="white"/>
<path d="M95.5447 117.728C95.674 117.719 95.8034 117.711 95.9327 117.704L95.9345 117.703C96.0449 117.697 96.1554 117.69 96.2658 117.683L95.515 116.956L95.5447 117.728Z" fill="white"/>
<path d="M78.3478 119.235L78.2889 119.176V112.569C80.6314 114.066 82.5853 116.201 83.9075 118.652C82.0521 118.824 80.1987 119.024 78.3478 119.235Z" fill="white"/>
<path d="M93.2815 106.434C93.7572 107.477 94.1799 108.546 94.5159 109.656C95.0303 111.227 95.2582 112.857 95.3831 114.499L98.5245 117.542C99.7217 117.468 100.918 117.398 102.115 117.334L96.1309 111.431V90.3244C95.1814 90.3408 94.23 90.315 93.2815 90.2258V106.434Z" fill="white"/>
<path d="M124.31 76.9969V22.4646C125.216 22.3372 126.116 22.1895 127.012 22.0184C127.017 22.0213 127.023 22.0244 127.028 22.0276L127.033 22.0305L127.041 22.0355C127.053 22.0427 127.064 22.0499 127.077 22.0556V68.0619L144.505 83.064C143.87 84.5022 143.275 85.9583 142.739 87.4336L130.959 76.9969H124.31Z" fill="white"/>
<path d="M174.433 119.168L174.442 119.169L174.443 119.169C175.017 119.228 175.592 119.286 176.165 119.349V117.636C175.818 115.975 175.319 114.315 173.908 113.279C173.827 113.219 173.743 113.164 173.661 113.107V119.089L174.433 119.168Z" fill="white"/>
<path d="M171.988 118.916C170.371 118.756 168.753 118.605 167.135 118.462V110.432C168.809 110.84 170.46 111.345 171.988 112.112V118.916Z" fill="white"/>
<path d="M97.804 90.2456V110.731L104.381 117.217C106.124 117.133 107.869 117.058 109.614 116.993L100.98 108.193V95.0267C100.141 94.6112 99.752 93.6167 100.116 92.7392C100.495 91.8246 101.544 91.3903 102.459 91.77C103.374 92.1493 103.808 93.1988 103.428 94.1139C103.269 94.4977 102.988 94.7907 102.652 94.9806V107.508L111.881 116.914C114.319 116.836 116.758 116.779 119.196 116.738L108.672 105.203V92.529L105.276 88.7038C102.842 89.5059 100.334 90.0478 97.804 90.2456Z" fill="white"/>
<path d="M76.6158 119.433C75.6029 119.553 74.5914 119.678 73.5795 119.806V110.617C74.6336 110.839 75.649 111.189 76.6158 111.644V119.433Z" fill="white"/>
<path d="M152.921 75.3847L166.492 87.7807C166.808 86.9483 167.134 86.1194 167.467 85.2929L154.336 73.1732C153.853 73.9024 153.381 74.6396 152.921 75.3847Z" fill="white"/>
<path d="M164.991 92.1746L150.591 79.4009C151.057 78.5383 151.539 77.6856 152.035 76.8418L165.87 89.4787C165.555 90.37 165.26 91.2683 164.991 92.1746Z" fill="white"/>
<path d="M148.254 84.0838L163.843 97.503C163.993 96.4912 164.169 95.4858 164.362 94.4888L164.364 94.4808C164.367 94.4675 164.37 94.4543 164.374 94.441L164.383 94.4025C164.39 94.3737 164.398 94.345 164.405 94.3163C164.417 94.27 164.429 94.2237 164.442 94.1774L164.442 94.1763C164.46 94.1085 164.478 94.0407 164.495 93.9727L149.796 80.9323C149.262 81.9724 148.743 83.0209 148.254 84.0838Z" fill="white"/>
<path d="M88.4775 97.9298V93.3446C89.1148 92.182 89.6455 90.9664 90.043 89.6973C90.5628 89.8192 91.0851 89.9214 91.6079 90.0076V103.188C90.9982 102.112 90.3561 101.051 89.714 99.9908C89.2989 99.3052 88.8838 98.6196 88.4775 97.9298Z" fill="white"/>
<path d="M54.1531 63.6606C54.5367 63.7166 54.8791 63.6745 55.1903 63.561L53.5599 61.4237C53.606 62.1986 53.7715 62.9551 54.1531 63.6606Z" fill="white"/>
<path d="M169.638 71.3468V57.2747C171.276 56.6258 173.03 56.2212 174.756 55.8881V58.4774C174.141 60.776 173.783 63.1322 173.425 65.4892L173.425 65.4906C173.114 67.5345 172.804 69.579 172.325 71.5872C171.723 74.2564 170.834 76.8294 169.852 79.3701C169.536 79.5451 169.27 79.8124 169.103 80.1624C168.898 80.5917 168.883 81.0592 169.017 81.4791C168.768 82.0969 168.516 82.7139 168.264 83.3309L168.257 83.3481L168.139 83.6366L155.285 71.7722C156.465 70.0722 157.714 68.4208 159.026 66.8205V69.7277C158.733 69.9027 158.486 70.162 158.328 70.4936C157.901 71.3885 158.28 72.4588 159.175 72.8851C160.068 73.3115 161.138 72.9322 161.565 72.0379C161.991 71.1435 161.612 70.0732 160.718 69.6469C160.715 69.6452 160.711 69.6442 160.708 69.6432C160.705 69.6424 160.702 69.6415 160.699 69.6404V64.8504C161.371 64.0849 162.058 63.3339 162.761 62.5962V62.7866C162.508 62.9596 162.293 63.1926 162.151 63.489C161.725 64.3834 162.104 65.4537 162.998 65.8801C163.892 66.3069 164.962 65.9272 165.388 65.0328C165.814 64.1385 165.435 63.0681 164.541 62.6423C164.506 62.6254 164.469 62.6175 164.434 62.6036V60.8987C164.541 60.7936 164.647 60.6879 164.753 60.5821C164.971 60.3656 165.188 60.1491 165.411 59.9379C166.18 59.1749 167.043 58.5632 167.966 58.058V71.4802C167.692 71.6547 167.459 71.9016 167.31 72.2159C166.883 73.1102 167.262 74.1806 168.156 74.6069C169.05 75.0332 170.12 74.654 170.546 73.7596C170.972 72.8653 170.593 71.795 169.7 71.3686C169.679 71.3597 169.659 71.3557 169.638 71.3468Z" fill="white"/>
<path d="M98.4073 234.853C112.782 234.853 125.737 228.772 134.842 219.042L122.866 207.938C116.78 214.414 108.139 218.458 98.5536 218.458C80.1278 218.458 65.1907 203.515 65.1907 185.081C65.1907 166.648 80.1278 151.705 98.5536 151.705C108.139 151.705 116.78 155.749 122.865 162.224L134.558 150.527C125.468 140.972 112.633 135.017 98.4073 135.017C70.8494 135.017 48.5092 157.366 48.5092 184.935C48.5092 212.504 70.8494 234.853 98.4073 234.853Z" fill="white"/>
<path d="M224.25 153.608V135.163H149.622V234.999H224.25V216.555H168.352V194.011H222.494V176.445H168.352L168.06 153.608H224.25Z" fill="white"/>
<path d="M15 135.164H34.0227V235H15.0123L15 135.164Z" fill="white"/>
</svg>
